# xmcd
#
# Track frame offsets:
#	150
#	14180
#	28665
#	40390
#	56807
#	72750
#	85882
#	87432
#	101427
#	117412
#	129087
#	148810
#
# Disc length: 2192 seconds
#
# Revision: 1
# Processed by: cddbd v1.5.2PL0 Copyright (c) Steve Scherf et al.
# Submitted via: audiograbber 1.83.01
#
DISCID=a9088e0c
DTITLE=Lindsay Thomas Morgan - I Never Dreamed
DYEAR=1995
DGENRE=Country
TTITLE0=Billy Joe
TTITLE1=Flowers
TTITLE2=The Trucker Song
TTITLE3=When I Was Good for You
TTITLE4=Crazy Times
TTITLE5=A Place for Broken Hearts
TTITLE6=The Drifter (Instrumental)
TTITLE7=Outlaws
TTITLE8=Home Is Where the Heart Aches
TTITLE9=Mr Murphy
TTITLE10=Pictures of My Life
TTITLE11=I Never Dreamed (The Wedding Song)
EXTD=
EXTT0=
EXTT1=
EXTT2=
EXTT3=
EXTT4=
EXTT5=
EXTT6=
EXTT7=
EXTT8=
EXTT9=
EXTT10=
EXTT11=
PLAYORDER=
